# Blender v2.79 (sub 0) OBJ File: 'upper obelysk.blend'
# www.blender.org
mtllib upper obelysk.mtl
o Desert_Obelisk_Stand_(2)
v -2.577651 6.953127 2.051853
v -2.394042 4.992125 -2.652647
v -2.555609 5.072254 -2.484951
v -2.647835 5.117994 -2.389228
v -2.647835 5.117994 -2.389228
v -2.582980 6.813770 1.714599
v -2.579362 6.908354 1.943499
v 2.515837 4.709646 -2.552460
v 2.406352 4.670267 -2.664957
v -0.365966 4.856146 -2.657848
v -2.394042 4.992125 -2.652647
v -2.572998 7.074766 1.925387
v -2.072399 7.074766 2.425962
v -1.989435 7.121603 2.552243
v -1.890169 7.122892 2.571159
v -1.149299 7.074766 2.573000
v 0.941449 6.938955 2.578187
v 2.127466 6.861917 2.581141
v 2.326397 6.848997 2.581635
v 2.572891 6.734940 2.345569
v 2.586937 6.710302 2.288329
v 2.638985 5.349396 -0.988524
v 2.661449 4.762018 -2.402842
v -2.314392 7.074766 -2.572996
v 2.314392 7.074766 -2.572996
v -1.498718 12.585424 -2.362209
v -2.208862 11.902395 -2.388333
v 2.103638 12.585424 -2.362209
v -2.149902 13.261465 -2.336361
v -1.892822 18.096087 -2.151454
v 1.892822 18.096087 -2.151454
v 1.178807 20.950544 -1.440235
v 0.000000 25.663126 -0.266044
v -1.333691 20.331354 -1.594512
v -2.572998 7.074766 1.925387
v -2.572998 7.074766 -2.314390
v -2.555359 7.535254 2.368929
v -2.362244 12.585424 2.103611
v -2.388367 11.902395 -2.208890
v -2.362244 12.585424 -1.498746
v -2.151428 18.096087 1.892859
v -2.151428 18.096087 -1.892848
v -1.593452 20.335550 -1.332657
v -0.266052 25.663126 0.000008
v -1.431014 20.987501 1.169589
v -2.336365 13.261465 -2.149898
v 2.326397 6.848997 2.581635
v 2.314392 7.074766 2.573000
v 2.103638 12.585424 2.362217
v -2.103638 12.585424 2.362217
v 1.503845 18.096087 2.151464
v 1.989868 17.628614 2.169317
v -1.892822 18.096087 2.151464
v 1.839355 18.509706 2.048407
v 1.047724 21.588430 1.281311
v -1.138476 21.111776 1.400075
v 0.000000 25.663126 0.266060
v 2.661449 4.762018 -2.402842
v 2.572998 7.074766 -2.314390
v 2.572998 7.074766 2.314394
v 2.362244 12.585424 -2.103603
v 2.362244 12.585424 2.103611
v 2.151428 18.096087 -1.892848
v 2.169312 17.628614 1.989873
v 2.151428 18.096087 1.503850
v 1.295189 21.532640 0.820884
v 0.266052 25.663126 0.000008
v 1.409042 21.075686 -1.147516
v 2.048401 18.509706 1.839330
v 1.282041 21.585478 1.048473
v -2.362244 12.585424 -1.498746
v -2.149902 13.261465 -2.336361
v -2.336365 13.261465 -2.149898
v -1.498718 12.585424 -2.362209
v -1.498718 12.585424 -2.362209
v -2.388367 11.902395 -2.208890
v -2.208862 11.902395 -2.388333
v -2.362244 12.585424 -1.498746
v 2.151428 18.096087 1.503850
v 1.839355 18.509706 2.048407
v 2.048401 18.509706 1.839330
v 1.503845 18.096087 2.151464
v -2.555359 7.535254 2.368929
v -2.368896 7.535254 2.555361
v -1.977149 7.128538 2.570940
v 1.503845 18.096087 2.151464
v 2.169312 17.628614 1.989873
v 1.989868 17.628614 2.169317
v 2.151428 18.096087 1.503850
v -2.534531 6.963507 2.083772
v 0.000000 25.663126 -0.266044
v 0.000000 25.663126 0.266060
v -0.266052 25.663126 0.000008
v 0.266052 25.663126 0.000008
v 1.892822 18.096087 -2.151454
v 2.362244 12.585424 -2.103603
v 2.151428 18.096087 -1.892848
v 2.103638 12.585424 -2.362209
v 2.572998 7.074766 -2.314390
v 2.314392 7.074766 -2.572996
v -1.412010 20.332621 -1.515562
v -0.266052 25.663126 0.000008
v -1.593452 20.335550 -1.332658
v -1.892822 18.096087 -2.151454
v -1.333691 20.331354 -1.594512
v 1.318303 21.026365 -1.262880
v 2.151428 18.096087 -1.892848
v 1.409042 21.075686 -1.147516
v 0.000000 25.663126 -0.266044
v 1.178807 20.950544 -1.440235
v -1.315388 21.036619 1.260689
v 0.000000 25.663126 0.266060
v -1.138476 21.111776 1.400075
v -2.151428 18.096087 1.892859
v -1.431014 20.987501 1.169589
v 1.162547 21.586985 1.167221
v 0.266052 25.663126 0.000008
v 1.282041 21.585478 1.048473
v 1.839355 18.509706 2.048407
v 1.047724 21.588430 1.281311
v -2.572998 7.074766 -2.314390
v -2.314392 7.074766 -2.572996
v -2.388367 11.902395 -2.208890
v -2.572998 7.074766 -2.314390
v -2.208862 11.902395 -2.388333
v -2.149902 13.261465 -2.336361
v -2.151428 18.096087 -1.892848
v -2.336365 13.261465 -2.149898
v -1.892822 18.096087 -2.151454
v 2.314392 7.074766 -2.572996
v -2.555359 7.535254 2.368929
v -2.103638 12.585424 2.362217
v -2.368896 7.535254 2.555361
v -2.362244 12.585424 2.103611
v -2.362244 12.585424 2.103611
v -1.892822 18.096087 2.151464
v -2.103638 12.585424 2.362217
v -2.151428 18.096087 1.892859
v 2.572998 7.074766 2.314394
v 2.586229 6.728767 2.332791
v 2.314392 7.074766 2.573000
v 2.362244 12.585424 2.103611
v 2.572998 7.074766 2.314394
v 2.103638 12.585424 2.362217
v 2.103638 12.585424 2.362217
v 2.169312 17.628614 1.989873
v 2.362244 12.585424 2.103611
v 1.989868 17.628614 2.169317
v 1.892822 18.096087 -2.151454
v 0.266052 25.663126 0.000008
v -1.892822 18.096087 2.151464
v 0.000000 25.663126 -0.266044
v 0.000000 25.663126 0.266060
v -2.151428 18.096087 -1.892848
v -0.266052 25.663126 0.000008
v 2.048401 18.509706 1.839330
v -2.314392 7.074766 -2.572996
v -1.926988 7.125280 2.571068
v -1.977149 7.128538 2.570940
v -2.368896 7.535254 2.555361
v 2.586229 6.728767 2.332791
v -2.072399 7.074766 2.425962
v -2.572998 7.074766 1.925387
v 2.572998 7.074766 -2.314390
v -2.577651 6.953127 2.051853
v 2.314392 7.074766 2.573000
v 2.406352 4.670267 -2.664957
vt 0.300855 0.260714
vt 0.299618 0.260203
vt 0.297004 0.259122
vt 0.250149 0.239747
vt 0.987089 0.239747
vt 0.985551 0.239250
vt 0.982785 0.238280
vt 0.961330 0.235418
vt 0.958945 0.235954
vt 0.068573 0.243264
vt 0.031767 0.260200
vt 0.961750 0.260559
vt 0.958195 0.262871
vt 0.148907 0.259673
vt 0.135350 0.260598
vt 0.111491 0.262109
vt 0.103031 0.262660
vt 0.000000 0.000000
vt 0.973733 0.262284
vt 0.962220 0.262875
vt 0.000000 0.000000
vt 0.000000 0.000000
vt 0.225594 0.238308
vt 0.202438 0.236755
vt 0.963187 0.235012
vt 0.224684 0.262104
vt 0.215372 0.325067
vt 0.171836 0.262104
vt 0.223479 0.317263
vt 0.174242 0.325067
vt 0.222806 0.332792
vt 0.219871 0.388031
vt 0.176649 0.388031
vt 0.184801 0.420908
vt 0.213487 0.413776
vt 0.198260 0.475186
vt 0.299411 0.262104
vt 0.304475 0.267365
vt 0.251004 0.262104
vt 0.301435 0.325071
vt 0.252401 0.317153
vt 0.260159 0.325127
vt 0.299040 0.388030
vt 0.255817 0.388031
vt 0.262213 0.413824
vt 0.290782 0.421333
vt 0.277428 0.475186
vt 0.252776 0.332819
vt 0.151177 0.259522
vt 0.151042 0.262105
vt 0.148636 0.325067
vt 0.141874 0.388169
vt 0.100600 0.325067
vt 0.147300 0.382714
vt 0.103013 0.388041
vt 0.145694 0.392854
vt 0.136625 0.428289
vt 0.124623 0.475187
vt 0.111625 0.422771
vt 0.084459 0.235954
vt 0.084437 0.262398
vt 0.031626 0.264372
vt 0.084384 0.325407
vt 0.036382 0.327202
vt 0.084332 0.388417
vt 0.039833 0.384735
vt 0.045578 0.389865
vt 0.054848 0.429128
vt 0.077110 0.423029
vt 0.065991 0.476318
vt 0.052274 0.429833
vt 0.041928 0.394769
vt 0.997098 0.325127
vt 0.989715 0.332819
vt 0.985643 0.332832
vt 0.978240 0.325187
vt 0.978240 0.325187
vt 0.985421 0.317166
vt 0.989341 0.317153
vt 0.997098 0.325127
vt 0.954090 0.388308
vt 0.947914 0.392898
vt 0.943149 0.392854
vt 0.939329 0.388169
vt 0.976165 0.262667
vt 0.976525 0.262724
vt 0.972059 0.267363
vt 0.967771 0.267583
vt 0.939329 0.388169
vt 0.944756 0.382714
vt 0.948846 0.382752
vt 0.954090 0.388308
vt 0.964432 0.261458
vt 0.953447 0.475186
vt 0.950448 0.478141
vt 0.947201 0.474137
vt 0.950200 0.471183
vt 0.963131 0.388196
vt 0.958818 0.388417
vt 0.958870 0.325407
vt 0.962873 0.325173
vt 0.958923 0.262398
vt 0.963100 0.262297
vt 0.980103 0.414156
vt 0.983084 0.413824
vt 0.998300 0.475186
vt 0.978831 0.414266
vt 0.972468 0.388549
vt 0.953205 0.421982
vt 0.951596 0.423029
vt 0.958818 0.388417
vt 0.955669 0.419671
vt 0.944323 0.475094
vt 0.983576 0.420558
vt 0.986111 0.422771
vt 0.999109 0.475187
vt 0.981929 0.419553
vt 0.973703 0.385837
vt 0.981444 0.431032
vt 0.982954 0.429833
vt 0.996671 0.476318
vt 0.979994 0.432184
vt 0.969949 0.396843
vt 0.987943 0.262104
vt 0.983704 0.261415
vt 0.987943 0.262104
vt 0.989341 0.317153
vt 0.986474 0.316724
vt 0.986770 0.333448
vt 0.989715 0.332819
vt 0.992756 0.388031
vt 0.988671 0.388903
vt 0.963100 0.262508
vt 0.969139 0.268057
vt 0.972059 0.267363
vt 0.975086 0.325067
vt 0.971162 0.325936
vt 0.971069 0.324990
vt 0.975086 0.325067
vt 0.977498 0.388041
vt 0.973172 0.387986
vt 0.961947 0.260430
vt 0.962305 0.264372
vt 0.958248 0.264589
vt 0.962305 0.264372
vt 0.967062 0.327202
vt 0.962891 0.327430
vt 0.962922 0.326653
vt 0.967062 0.327202
vt 0.970512 0.384735
vt 0.967640 0.384355
vt 0.962542 0.386102
vt 0.940477 0.476318
vt 0.977498 0.388041
vt 0.994008 0.475608
vt 0.993288 0.478958
vt 0.976689 0.388031
vt 0.995231 0.474075
vt 0.972607 0.394769
vt 0.983650 0.262015
vt 0.097573 0.267363
vt 0.102039 0.262724
vt 0.102611 0.262687
vt 0.031268 0.260430
vt 0.962220 0.262875
vt 0.973733 0.262284
vt 0.958923 0.262398
vt 0.963564 0.261381
vt 0.958380 0.265456
vt 0.170786 0.234631
vn -0.9999 -0.0021 0.0167
vn -0.7402 -0.6172 0.2667
vn -0.3958 -0.8463 0.3566
vn -0.4857 -0.8733 -0.0385
vn -0.6354 -0.7228 -0.2717
vn -0.7402 -0.4534 -0.4965
vn 0.5725 -0.7689 -0.2845
vn 0.4755 -0.8666 -0.1513
vn 0.6972 -0.6576 0.2853
vn 0.7237 -0.6328 0.2754
vn 0.4676 -0.5012 0.7281
vn 0.3667 -0.6261 0.6881
vn -0.0383 -0.5380 0.8421
vn -0.0370 -0.5185 0.8543
vn -0.0629 -0.9215 0.3833
vn -0.0663 -0.9439 -0.3236
vn -0.0583 -0.8188 -0.5711
vn 0.3621 -0.9318 -0.0268
vn -0.0000 0.0382 -0.9993
vn 0.0000 0.1307 -0.9914
vn -0.0000 0.1311 -0.9914
vn -0.0000 0.2418 -0.9703
vn -0.9993 0.0382 -0.0000
vn -0.9914 0.1311 0.0000
vn -0.9914 0.1307 -0.0000
vn -0.9703 0.2418 0.0000
vn 0.0000 0.0382 0.9993
vn 0.0000 0.1377 0.9905
vn 0.0001 0.0382 0.9993
vn 0.0000 0.1311 0.9914
vn 0.0000 0.2418 0.9703
vn 0.9993 0.0382 -0.0000
vn 0.9914 0.1311 -0.0000
vn 0.9905 0.1377 -0.0000
vn 0.9703 0.2418 -0.0000
vn 0.9703 0.2418 -0.0001
vn -0.5918 -0.5474 -0.5918
vn -0.5918 -0.5473 -0.5918
vn -0.5623 0.6062 -0.5624
vn -0.5623 0.6061 -0.5625
vn 0.6571 -0.3693 0.6571
vn 0.6572 -0.3693 0.6571
vn -0.5918 -0.5473 0.5918
vn 0.5624 0.6062 0.5624
vn -0.5623 0.6062 0.5624
vn -0.5624 0.6062 0.5624
vn 0.0000 1.0000 0.0000
vn 0.7995 0.0535 -0.5983
vn 0.5983 0.0535 -0.7995
vn 0.7061 0.0540 -0.7061
vn -0.7134 0.3329 -0.6167
vn -0.6668 0.3329 -0.6668
vn -0.6927 0.2011 -0.6926
vn -0.7570 0.3298 -0.5640
vn 0.7068 0.3548 -0.6120
vn 0.6934 0.1955 -0.6935
vn 0.5595 0.3295 -0.7605
vn 0.6668 0.3329 -0.6668
vn -0.6119 0.3546 0.7069
vn -0.6668 0.3329 0.6668
vn -0.6934 0.1955 0.6935
vn -0.5595 0.3295 0.7605
vn 0.6658 0.3371 0.6657
vn 0.6658 0.3370 0.6657
vn 0.6657 0.3371 0.6657
vn -0.7101 0.0540 -0.7020
vn -0.7023 0.0425 -0.7106
vn -0.7106 0.0425 -0.7023
vn -0.7064 0.0425 -0.7066
vn -0.7063 0.0425 -0.7066
vn -0.7056 0.0645 -0.7056
vn -0.6017 0.0639 -0.7961
vn -0.7961 0.0653 -0.6017
vn -0.7056 0.0641 0.7057
vn -0.7021 0.0640 0.7092
vn -0.7092 0.0640 0.7021
vn -0.7096 0.0540 0.7025
vn -0.7025 0.0540 0.7096
vn -0.7995 0.0535 0.5983
vn -0.5983 0.0535 0.7995
vn 0.7052 0.0594 0.7066
vn 0.7094 0.0645 0.7019
vn 0.7024 0.0540 0.7097
vn 0.7097 0.0540 0.7024
vn 0.7100 0.0540 0.7022
vn 0.7022 0.0540 0.7100
vn 0.7025 0.0430 0.7104
vn 0.7104 0.0430 0.7025
vn 0.7065 0.0430 0.7065
vn 0.7605 0.3296 -0.5595
vn -0.7605 0.3296 0.5595
vn -0.5640 0.3299 -0.7570
vn -0.7020 0.0540 -0.7101
vn -0.0001 0.0382 0.9993
vn 0.7019 0.0645 0.7094
usemtl DesertKitsAtlas_Sample512
s 1
f 1/1/1 7/2/2 6/3/2 5/4/3 4/5/4 3/6/5 2/7/6
f 8/8/7 23/9/8 22/10/9 21/11/10 20/12/11 19/13/12 18/14/13 17/15/13 16/16/13 15/17/14 14/18/15 13/19/15 12/20/15 6/21/15 4/5/4 5/4/3 3/22/15 11/23/16 10/24/17 9/25/18
f 10/24/17 11/23/16 24/26/19
f 24/26/19 26/27/19 25/28/19
f 24/26/19 27/29/19 26/27/19
f 26/27/19 28/30/19 25/28/19
f 26/27/19 29/31/19 28/30/19
f 29/31/19 30/32/20 28/30/19
f 30/32/20 31/33/21 28/30/19
f 32/34/22 34/35/22 33/36/22
f 7/2/2 35/37/23 6/3/2
f 7/2/2 1/1/1 35/37/23
f 35/37/23 37/38/23 36/39/23
f 37/38/23 38/40/23 36/39/23
f 38/40/23 39/41/23 36/39/23
f 38/40/23 40/42/23 39/41/23
f 38/40/23 41/43/24 40/42/23
f 41/43/24 42/44/25 40/42/23
f 43/45/26 45/46/26 44/47/26
f 42/44/25 46/48/23 40/42/23
f 47/49/27 48/50/27 18/14/13
f 49/51/27 51/52/28 50/53/27
f 49/51/27 52/54/29 51/52/28
f 51/52/28 53/55/30 50/53/27
f 53/55/30 51/52/28 54/56/31
f 55/57/31 57/58/31 56/59/31
f 58/60/32 59/61/32 22/10/9
f 60/62/32 59/61/32 61/63/32
f 61/63/32 62/64/32 60/62/32
f 61/63/32 63/65/33 62/64/32
f 63/65/33 64/66/32 62/64/32
f 63/65/33 65/67/34 64/66/32
f 66/68/35 68/69/35 67/70/35
f 66/68/35 70/71/36 69/72/36 65/67/34
f 71/73/37 73/74/38 72/75/37
f 72/75/37 74/76/37 71/73/37
f 75/77/39 77/78/40 76/79/39
f 76/79/39 78/80/39 75/77/39
f 79/81/41 81/82/42 80/83/41
f 80/83/41 82/84/41 79/81/41
f 14/85/43 85/86/43 84/87/43 83/88/43
f 86/89/44 88/90/44 87/91/44
f 87/91/44 89/92/44 86/89/44
f 90/93/45 13/19/46 12/20/45
f 91/94/47 93/95/47 92/96/47
f 92/96/47 94/97/47 91/94/47
f 95/98/48 97/99/49 96/100/50
f 96/100/50 98/101/50 95/98/48
f 98/101/50 96/100/50 99/102/50
f 99/102/50 100/103/50 98/101/50
f 101/104/51 103/105/52 102/106/52
f 101/104/51 105/107/53 104/108/54
f 106/109/55 108/110/56 107/111/57
f 106/109/55 110/112/58 109/113/58
f 111/114/59 113/115/60 112/116/60
f 111/114/59 115/117/61 114/118/62
f 116/119/63 118/120/64 117/121/65
f 116/119/63 120/122/65 119/123/64
f 3/6/5 4/5/4 121/124/66
f 122/125/67 124/126/68 123/127/69
f 123/127/69 125/128/70 122/125/67
f 126/129/71 128/130/71 127/131/72
f 127/131/72 129/132/73 126/129/71
f 8/8/7 9/25/18 130/133/50
f 131/134/74 133/135/74 132/136/75
f 132/136/75 134/137/76 131/134/74
f 135/138/77 137/139/78 136/140/79
f 136/140/79 138/141/80 135/138/77
f 20/12/11 140/142/81 139/143/82
f 141/144/83 143/145/84 142/146/85
f 142/146/85 144/147/86 141/144/83
f 145/148/87 147/149/88 146/150/89
f 146/150/89 148/151/89 145/148/87
f 107/111/57 149/152/90 110/112/58 106/109/55
f 109/113/58 150/153/58 108/110/56 106/109/55
f 114/118/62 151/154/91 113/115/60 111/114/59
f 102/106/52 152/155/52 105/107/53 101/104/51
f 117/121/65 153/156/65 120/122/65 116/119/63
f 104/108/54 154/157/92 103/105/52 101/104/51
f 65/67/34 63/65/33 68/69/35 66/68/35
f 67/70/35 70/71/36 66/68/35
f 112/116/60 155/158/60 115/117/61 111/114/59
f 42/44/25 41/43/24 45/46/26 43/45/26
f 31/33/21 30/32/20 34/35/22 32/34/22
f 119/123/64 156/159/64 118/120/64 116/119/63
f 54/56/31 55/57/31 56/59/31 53/55/30
f 121/124/66 157/160/93 2/7/6 3/6/5
f 50/53/27 160/161/94 159/162/94 158/163/27
f 49/51/27 50/53/27 158/163/27 15/17/14
f 59/61/32 60/62/32 21/11/10 22/10/9
f 60/62/32 161/164/32 21/11/10
f 83/88/43 163/165/43 162/166/43 14/85/43
f 130/133/50 164/167/50 23/9/8 8/8/7
f 48/50/27 49/51/27 15/17/14 16/16/13
f 12/20/45 165/168/45 90/93/45
f 139/143/82 166/169/95 19/13/12 20/12/11
f 48/50/27 17/15/13 18/14/13
f 48/50/27 16/16/13 17/15/13
f 35/37/23 36/39/23 5/4/3 6/3/2
f 24/26/19 25/28/19 167/170/19 10/24/17
l 13 6
l 12 3
