# Blender v2.79 (sub 0) OBJ File: ''
# www.blender.org
mtllib crystal group 15.mtl
o Crystal
v -19.237717 8.402998 10.456501
v -18.430115 7.078098 10.458801
v -18.305817 6.041198 10.978701
v -18.791214 7.917899 10.037801
v -18.725723 8.110498 10.188201
v -18.244614 7.112698 10.269701
v -18.357712 7.102498 10.410401
v -7.076904 2.568894 34.736401
v -7.289825 2.661294 34.768299
v -6.984131 2.518194 34.762600
v -7.116302 2.547294 34.890202
v -5.721527 5.956994 35.666901
v -22.244217 1.944095 29.581301
v -21.482315 1.902995 29.254999
v -20.860413 1.572395 29.693800
v -21.000320 1.282995 30.458799
v -21.762222 1.324095 30.785000
v -22.384109 1.654695 30.346300
v -21.334915 2.532295 29.520100
v -20.874710 2.287795 29.844700
v -20.746017 2.060395 29.899300
v -22.134109 2.413795 29.779200
v -21.600021 2.715395 29.720600
v -21.529510 2.711595 29.690399
v -22.274017 2.124395 30.544100
v -21.613617 1.957995 31.052000
v -22.047623 2.188595 30.745899
v -20.886017 1.770995 30.664301
v -21.288513 2.141595 31.016399
v -21.530716 2.735095 29.782400
v -21.333511 2.710195 30.246000
v -21.412216 2.547395 30.676300
v -13.880219 -1.385707 45.548599
v -13.307312 -1.596107 45.365002
v -12.950623 -1.940008 45.765900
v -13.166809 -2.073508 46.350399
v -13.739716 -1.863008 46.534000
v -14.096405 -1.519107 46.133099
v -12.636902 -0.347307 45.928501
v -12.547607 -0.433307 46.028801
v -12.440002 -0.918407 46.188000
v -12.685120 -0.351207 45.879398
v -13.399719 -0.424407 45.945801
v -12.839813 -0.294407 45.928902
v -13.615906 -0.557808 46.530300
v -13.231720 -0.707508 46.939999
v -13.404602 -0.540708 46.745602
v -13.210327 -0.803808 46.971600
v -12.656219 -1.051808 46.772499
v -12.692902 -0.993908 46.805801
v -12.827026 -0.389208 46.607399
v -12.642426 -0.283408 46.114899
v -12.648315 -0.278808 46.124100
v -13.032623 -0.454308 46.734402
v -29.948212 -4.026708 48.211201
v -29.118317 -4.046808 48.303600
v -28.785217 -4.187008 49.056702
v -29.115814 -3.355208 48.431301
v -28.869415 -3.458908 48.988400
v -28.783310 -3.650708 49.155701
v -29.946320 -3.510508 48.306400
v -29.446518 -3.164008 48.428200
v -29.369720 -3.165908 48.436699
v -29.415512 -3.121808 48.508099
v -29.467819 -3.012908 49.001301
v -29.747314 -3.080408 49.372799
v -42.495422 -5.132007 40.355000
v -41.332916 -5.478207 39.686298
v -40.099518 -5.191906 40.247799
v -40.028610 -4.559507 41.478100
v -41.331314 -4.714506 39.293598
v -40.097916 -4.428206 39.855099
v -42.493515 -4.166907 39.858799
v -42.448822 -4.145906 39.815399
v -41.637009 -4.387606 39.348499
v -42.422623 -3.534507 41.089001
v -41.190018 -3.653907 41.859200
v -42.084915 -3.211507 41.116699
v -40.027512 -4.000107 41.190498
v -40.069916 -3.838806 40.152302
v -41.586319 -3.320906 39.886200
v -41.537613 -3.253306 39.935799
v 5.150482 1.354989 69.179001
v -1.571320 0.304392 46.215401
v -0.749329 0.109993 46.012699
v -0.189606 -0.115608 46.637501
v -0.451904 -0.146808 47.465000
v -1.273926 0.047492 47.667702
v -1.833618 0.273092 47.042900
v -0.562225 0.811792 46.098499
v -0.148224 0.644892 46.560799
v -0.044617 0.428592 46.704102
v -1.431702 0.828093 46.279499
v -0.841003 1.075192 46.202202
v -0.764923 1.057192 46.183399
v -1.694031 0.796892 47.106899
v -1.085510 0.754292 47.754101
v -1.476013 0.911792 47.318199
v -0.306915 0.397292 47.531502
v -0.725830 0.904792 47.707100
v -0.774231 1.110392 46.266899
v -0.625702 1.223292 46.760899
v -0.773315 1.205692 47.226299
v -24.582611 1.132295 32.989201
v -23.604919 -0.441105 32.072102
v -22.804016 -1.966705 33.213799
v -22.980820 -1.918906 35.272701
v -23.958511 -0.345506 36.189800
v -24.759415 1.180094 35.048100
v -22.498215 0.199895 32.152199
v -21.697311 -1.325706 33.293999
v -23.184021 1.942295 33.090500
v -23.096710 1.910795 33.058899
v -22.414017 0.812095 32.418499
v -23.360809 1.990094 35.149399
v -23.147812 0.123894 36.248501
v -22.787216 1.778394 35.487202
v -22.170212 -1.449406 35.331402
v -21.264923 -1.017406 34.124699
v -21.631622 1.370095 33.921799
v -21.560013 1.342994 34.044601
v -6.452728 -1.477709 56.636501
v -5.860901 -1.782009 56.445202
v -5.399231 -1.972909 56.924500
v -5.529205 -1.859509 57.595001
v -6.121002 -1.555209 57.786301
v -6.582703 -1.364309 57.306999
v -5.093109 -0.315009 56.377300
v -4.977631 -0.362809 56.497200
v -4.818115 -0.787709 56.836700
v -5.152924 -0.337809 56.338200
v -5.906006 -0.362509 56.553902
v -5.312714 -0.255609 56.389900
v -6.036011 -0.249109 57.224400
v -5.550201 -0.242009 57.627899
v -5.774109 -0.149409 57.395500
v -5.518524 -0.326409 57.695301
v -4.948120 -0.674309 57.507301
v -4.984009 -0.601309 57.522499
v -5.182831 -0.071509 57.099300
v -5.070404 -0.173909 56.536701
v -5.075317 -0.165309 56.544899
v -5.379913 -0.078409 57.286499
v -0.296204 -0.473809 55.872898
v 0.290283 -0.728909 55.912300
v 0.395691 -1.232709 56.294102
v -0.085510 -1.481309 56.636700
v -0.672028 -1.226109 56.597401
v -0.777405 -0.722409 56.215500
v 0.413086 -0.381309 56.336899
v 0.445374 -0.535709 56.453999
v 0.447998 -1.084709 56.474899
v -0.179626 -0.143609 56.276299
v -0.135712 -0.141609 56.301300
v 0.411499 -0.379609 56.337898
v -0.683716 -0.457009 56.539799
v -0.552612 -0.336309 56.541801
v -0.578308 -0.960709 56.921700
v -0.308411 -1.025109 56.994801
v -0.468506 -0.955509 56.984100
v -0.033203 -1.333309 56.817501
v 0.295197 -0.367509 56.550701
v 0.027588 -0.286009 56.732101
v -0.099426 -0.351609 56.822601
v -0.309418 -0.809109 56.986500
v -0.107117 -0.315209 56.794899
v -0.014801 -0.267509 56.729301
v -30.380249 -4.131130 48.785564
v -29.169540 -3.744154 49.669266
v -29.905823 -3.190296 49.334198
v -30.397125 -3.619556 48.905800
v -29.756699 -3.128917 49.446560
v -29.152008 -4.275734 49.544327
v -42.472992 -4.931643 40.744736
v -40.853439 -4.313890 41.952518
v -42.422745 -3.594874 41.120049
v -41.190140 -3.711512 41.888817
vt 0.666700 0.000000
vt 0.916700 0.000000
vt 0.750000 0.000000
vt 0.333300 0.000000
vt 0.083300 0.000000
vt 0.250000 0.000000
vt 0.916700 0.480000
vt 0.793400 0.480000
vt 0.750000 0.372200
vt 0.083300 0.358200
vt -0.016800 0.607000
vt -0.032200 0.607000
vt -0.083300 0.480000
vt -0.083300 0.000000
vt 0.083300 0.000000
vt 0.250000 0.358200
vt 0.416700 0.483400
vt 0.300400 0.483400
vt 0.416700 0.000000
vt 0.583300 0.372200
vt 0.477600 0.634900
vt 0.583300 0.000000
vt 0.661000 0.607000
vt 0.602300 0.645400
vt 0.461700 0.779400
vt 0.397400 0.779400
vt 0.583900 0.607000
vt 0.083300 0.000000
vt -0.083300 0.000000
vt 0.333300 0.000000
vt 0.583300 0.000000
vt 0.416700 0.000000
vt 0.250000 0.000000
vt 0.902100 0.858300
vt 0.860400 0.858300
vt 0.750000 0.685600
vt 0.750000 0.000000
vt 0.916700 0.000000
vt 0.916700 0.835500
vt 0.083300 0.645100
vt -0.038300 0.835500
vt -0.083300 0.835500
vt 0.250000 0.645100
vt 0.394800 0.745200
vt 0.313900 0.745200
vt 0.416700 0.710900
vt 0.583300 0.685600
vt 0.567200 0.710900
vt 0.247300 0.926200
vt 0.533100 0.923600
vt 0.517000 0.926200
vt 0.272100 0.871600
vt 0.630000 0.835500
vt 0.916700 0.480000
vt 0.793400 0.480000
vt 0.750000 0.372200
vt 0.750000 0.000000
vt 0.916700 0.000000
vt 0.083300 0.358200
vt -0.016800 0.607000
vt -0.032200 0.607000
vt -0.083300 0.480000
vt -0.083300 0.000000
vt 0.083300 0.000000
vt 0.228239 0.000000
vt 0.234533 0.358200
vt 0.661000 0.607000
vt 0.602300 0.645400
vt 0.461700 0.779400
vt 0.371541 0.700490
vt 0.410407 0.755964
vt 0.397400 0.779400
vt 0.916700 0.000000
vt 0.916700 0.406000
vt 0.750000 0.406000
vt 0.750000 0.000000
vt 0.083300 0.513100
vt 0.076900 0.531300
vt -0.039400 0.531300
vt -0.083300 0.406000
vt -0.083300 0.000000
vt 0.083300 0.000000
vt 0.250000 0.481002
vt 0.250000 0.513100
vt 0.136107 0.000000
vt 0.685700 0.589600
vt 0.583300 0.297400
vt 0.583300 0.000000
vt 0.697200 0.531300
vt 0.332200 0.863600
vt 0.324300 0.881400
vt 0.416700 0.297400
vt 0.295600 0.643200
vt 0.115300 0.531300
vt 0.666700 0.000000
vt 0.916700 0.000000
vt 0.750000 0.000000
vt 0.333300 0.000000
vt 0.083300 0.000000
vt 0.250000 0.000000
vt 0.916700 0.480000
vt 0.793400 0.480000
vt 0.750000 0.372200
vt 0.083300 0.358200
vt -0.016800 0.607000
vt -0.032200 0.607000
vt -0.083300 0.480000
vt -0.083300 0.000000
vt 0.083300 0.000000
vt 0.250000 0.358200
vt 0.416700 0.483400
vt 0.300400 0.483400
vt 0.416700 0.000000
vt 0.583300 0.372200
vt 0.477600 0.634900
vt 0.583300 0.000000
vt 0.661000 0.607000
vt 0.602300 0.645400
vt 0.461700 0.779400
vt 0.397400 0.779400
vt 0.583900 0.607000
vt 0.666700 0.000000
vt 0.916700 0.000000
vt 0.750000 0.000000
vt 0.333300 0.000000
vt 0.083300 0.000000
vt 0.250000 0.000000
vt 0.916700 0.406000
vt 0.750000 0.406000
vt 0.083300 0.513100
vt 0.076900 0.531300
vt -0.039400 0.531300
vt -0.083300 0.406000
vt -0.083300 0.000000
vt 0.083300 0.000000
vt 0.250000 0.513100
vt 0.416700 0.297400
vt 0.295600 0.643200
vt 0.416700 0.000000
vt 0.583300 0.000000
vt 0.583300 0.297400
vt 0.685700 0.589600
vt 0.697200 0.531300
vt 0.332200 0.863600
vt 0.324300 0.881400
vt 0.115300 0.531300
vt 0.083300 0.000000
vt -0.083300 0.000000
vt 0.333300 0.000000
vt 0.583300 0.000000
vt 0.416700 0.000000
vt 0.250000 0.000000
vt 0.902100 0.858300
vt 0.860400 0.858300
vt 0.750000 0.685600
vt 0.750000 0.000000
vt 0.916700 0.000000
vt 0.916700 0.835500
vt 0.083300 0.645100
vt -0.038300 0.835500
vt -0.083300 0.835500
vt 0.250000 0.645100
vt 0.394800 0.745200
vt 0.313900 0.745200
vt 0.416700 0.710900
vt 0.583300 0.685600
vt 0.567200 0.710900
vt 0.247300 0.926200
vt 0.533100 0.923600
vt 0.517000 0.926200
vt 0.272100 0.871600
vt 0.630000 0.835500
vt 0.666700 0.000000
vt 0.916700 0.000000
vt 0.750000 0.000000
vt 0.333300 0.000000
vt 0.083300 0.000000
vt 0.250000 0.000000
vt 0.916700 0.673000
vt 0.865600 0.673000
vt 0.750000 0.286500
vt 0.083300 0.639200
vt 0.072700 0.674800
vt -0.082800 0.674800
vt -0.083300 0.673000
vt -0.083300 0.000000
vt 0.083300 0.000000
vt 0.250000 0.513900
vt 0.212500 0.639200
vt 0.416700 0.000000
vt 0.416700 0.513900
vt 0.488700 0.602800
vt 0.443300 0.602800
vt 0.583300 0.000000
vt 0.583300 0.286500
vt 0.911700 0.674800
vt 0.481300 0.845600
vt 0.136200 1.000000
vt 0.134700 1.000000
vt 0.352300 0.754900
vt 0.182900 1.000000
vt 0.343700 0.639200
vt 0.384700 1.000000
vt 0.096700 0.674800
vt 0.521300 1.000000
vt 0.511000 1.000000
vt 0.626300 1.000000
vt 0.603200 1.000000
vt 0.416700 0.266775
vt 0.465103 0.000000
vt 0.666700 0.000000
vt 0.333300 0.000000
vt 0.155934 0.000000
vt 0.534698 0.000000
vt 0.583900 0.607000
vt 0.620404 0.372200
vt 0.626949 0.000000
vt 0.666700 0.000000
vt 0.442410 0.000000
vt 0.304397 0.000000
vn -0.2111 -0.9008 -0.3794
vn 0.6274 0.1728 -0.7593
vn -0.3354 0.4314 -0.8375
vn -0.9628 0.2586 -0.0782
vn -0.6274 -0.1728 0.7593
vn 0.3354 -0.4314 0.8375
vn 0.9628 -0.2586 0.0783
vn 0.5650 0.8011 -0.1974
vn 0.7806 0.5238 0.3410
vn -0.2416 0.5790 0.7787
vn -0.4572 0.8563 0.2404
vn -0.0540 0.9673 -0.2478
vn -0.4193 -0.8390 -0.3467
vn 0.7148 -0.0697 -0.6959
vn -0.1272 0.4324 -0.8927
vn -0.8420 0.5022 -0.1968
vn -0.7148 0.0698 0.6958
vn 0.1272 -0.4324 0.8927
vn 0.8421 -0.5022 0.1968
vn 0.8624 0.3200 0.3921
vn 0.4030 0.3648 0.8394
vn -0.1382 0.6875 0.7129
vn -0.2200 0.9655 0.1390
vn 0.7805 0.5982 -0.1819
vn 0.2394 0.9206 -0.3084
vn 0.9171 0.0692 -0.3927
vn 0.1132 0.1799 -0.9771
vn -0.8038 0.1108 -0.5845
vn 0.5922 0.7978 -0.1134
vn -0.5867 0.7088 0.3915
vn 0.0755 0.8691 -0.4888
vn 0.4550 -0.4080 -0.7915
vn -0.5436 -0.3829 -0.7469
vn -0.9987 0.0250 0.0447
vn 0.9987 -0.0250 -0.0447
vn 0.2939 0.4191 -0.8591
vn 0.3508 0.9274 0.1298
vn -0.6406 0.6973 -0.3216
vn -0.3480 0.4351 -0.8304
vn -0.2558 -0.9596 -0.1173
vn 0.7207 -0.1083 -0.6847
vn -0.1977 0.1708 -0.9653
vn -0.9184 0.2791 -0.2806
vn -0.7207 0.1084 0.6847
vn 0.1977 -0.1707 0.9653
vn 0.9183 -0.2793 0.2806
vn 0.6592 0.6654 -0.3502
vn 0.7863 0.5556 0.2703
vn -0.2673 0.8047 0.5301
vn -0.3943 0.9145 -0.0905
vn 0.0688 0.8448 -0.5306
vn -0.8636 -0.5002 -0.0625
vn 0.3225 -0.4528 -0.8312
vn -0.1743 0.4128 -0.8940
vn -0.4968 0.8656 -0.0628
vn -0.3224 0.4528 0.8313
vn 0.1743 -0.4128 0.8940
vn 0.4968 -0.8656 0.0628
vn 0.8689 0.0921 -0.4864
vn 0.7736 0.1178 0.6226
vn 0.3423 0.9396 0.0076
vn 0.5496 0.6485 -0.5267
vn -0.4393 -0.8959 0.0663
vn 0.6019 -0.3483 -0.7186
vn -0.2767 0.0646 -0.9588
vn -0.8785 0.4129 -0.2402
vn -0.6019 0.3483 0.7186
vn 0.2766 -0.0646 0.9588
vn 0.8785 -0.4130 0.2401
vn 0.9012 0.4210 0.1035
vn 0.5142 0.6449 0.5655
vn -0.0506 0.9102 0.4112
vn -0.2282 0.9517 -0.2052
vn 0.7234 0.4623 -0.5128
vn 0.1587 0.7279 -0.6670
vn -0.2183 -0.6181 -0.7552
vn 0.9620 -0.0059 -0.2730
vn 0.3386 0.6778 -0.6526
vn -0.6234 0.6837 -0.3795
vn -0.9619 0.0058 0.2732
vn -0.3386 -0.6778 0.6526
vn 0.6233 -0.6838 0.3794
vn 0.7854 0.4700 0.4027
vn 0.5679 0.0341 0.8224
vn -0.0501 0.0381 0.9980
vn -0.4510 0.4774 0.7541
vn -0.2334 0.9130 0.3347
vn 0.2183 0.6180 0.7552
vn 0.3848 0.9092 0.1588
vn -0.4551 0.4079 0.7915
vn 0.5436 0.3829 0.7469
vn -0.0018 -0.8893 0.4573
vn -0.5139 0.8245 -0.2366
vn 0.8038 -0.1108 0.5844
vn 0.5194 0.6821 0.5147
vn -0.0036 -0.9834 -0.1815
usemtl wire_020020020
s off
f 13/1/1 14/2/1 15/3/1 16/4/1 17/5/1 18/6/1
f 19/7/2 20/8/2 21/9/2 15/3/2 14/2/2
f 22/10/3 23/11/3 24/12/3 19/13/3 14/14/3 13/15/3
f 18/6/4 25/16/4 22/10/4 13/15/4
f 26/17/5 27/18/5 25/16/5 18/6/5 17/19/5
f 28/20/6 29/21/6 26/17/6 17/19/6 16/22/6
f 15/3/7 21/9/7 28/20/7 16/22/7
f 24/23/8 30/24/8 31/25/8 20/8/8 19/7/8
f 31/25/9 32/26/9 29/21/9 28/20/9 21/9/9 20/8/9
f 26/17/10 29/21/10 32/26/10 27/18/10
f 32/26/11 31/25/11 30/24/11 23/27/11 22/10/11 25/16/11 27/18/11
f 23/11/12 30/24/12 24/23/12
f 33/28/13 34/29/13 35/30/13 36/31/13 37/32/13 38/33/13
f 39/34/14 40/35/14 41/36/14 35/37/14 34/38/14 42/39/14
f 43/40/15 44/41/15 42/42/15 34/29/15 33/28/15
f 38/33/16 45/43/16 43/40/16 33/28/16
f 46/44/17 47/45/17 45/43/17 38/33/17 37/32/17 48/46/17
f 49/47/18 50/48/18 48/46/18 37/32/18 36/31/18
f 35/37/19 41/36/19 49/47/19 36/31/19
f 51/49/20 50/48/20 49/47/20 41/36/20 40/35/20 52/50/20 53/51/20
f 46/44/21 48/46/21 50/48/21 51/49/21 54/52/21
f 47/45/22 46/44/22 54/52/22
f 54/52/23 51/49/23 53/51/23 44/53/23 43/40/23 45/43/23 47/45/23
f 52/50/24 40/35/24 39/34/24
f 53/51/25 52/50/25 39/34/25 42/39/25 44/41/25
f 58/54/26 59/55/26 60/56/26 57/57/26 56/58/26
f 61/59/27 62/60/27 63/61/27 58/62/27 56/63/27 55/64/27
f 168/65/28 171/66/28 61/59/28 55/64/28
f 63/67/29 64/68/29 65/69/29 59/55/29 58/54/29
f 170/70/30 172/71/30 66/72/30
f 62/60/31 64/68/31 63/67/31
f 68/73/32 71/74/32 72/75/32 69/76/32
f 73/77/33 74/78/33 75/79/33 71/80/33 68/81/33 67/82/33
f 176/83/34 76/84/34 73/77/34 67/82/34 174/85/34
f 69/76/35 72/75/35 80/86/35 79/87/35 70/88/35
f 75/89/36 81/90/36 82/91/36 80/86/36 72/75/36 71/74/36
f 77/92/37 79/87/37 80/86/37 82/91/37 78/93/37
f 82/91/38 81/90/38 74/94/38 73/77/38 76/84/38 78/93/38
f 74/78/39 81/90/39 75/89/39
f 84/95/40 85/96/40 86/97/40 87/98/40 88/99/40 89/100/40
f 90/101/41 91/102/41 92/103/41 86/97/41 85/96/41
f 93/104/42 94/105/42 95/106/42 90/107/42 85/108/42 84/109/42
f 89/100/43 96/110/43 93/104/43 84/109/43
f 97/111/44 98/112/44 96/110/44 89/100/44 88/113/44
f 99/114/45 100/115/45 97/111/45 88/113/45 87/116/45
f 86/97/46 92/103/46 99/114/46 87/116/46
f 95/117/47 101/118/47 102/119/47 91/102/47 90/101/47
f 102/119/48 103/120/48 100/115/48 99/114/48 92/103/48 91/102/48
f 97/111/49 100/115/49 103/120/49 98/112/49
f 103/120/50 102/119/50 101/118/50 94/121/50 93/104/50 96/110/50 98/112/50
f 94/105/51 101/118/51 95/117/51
f 104/122/52 105/123/52 106/124/52 107/125/52 108/126/52 109/127/52
f 105/123/53 110/128/53 111/129/53 106/124/53
f 112/130/54 113/131/54 114/132/54 110/133/54 105/134/54 104/135/54
f 109/127/55 115/136/55 112/130/55 104/135/55
f 116/137/56 117/138/56 115/136/56 109/127/56 108/139/56
f 107/140/57 118/141/57 116/137/57 108/139/57
f 106/124/58 111/129/58 119/142/58 118/141/58 107/140/58
f 114/143/59 120/144/59 121/145/59 119/142/59 111/129/59 110/128/59
f 116/137/60 118/141/60 119/142/60 121/145/60 117/138/60
f 121/145/61 120/144/61 113/146/61 112/130/61 115/136/61 117/138/61
f 113/131/62 120/144/62 114/143/62
f 122/147/63 123/148/63 124/149/63 125/150/63 126/151/63 127/152/63
f 128/153/64 129/154/64 130/155/64 124/156/64 123/157/64 131/158/64
f 132/159/65 133/160/65 131/161/65 123/148/65 122/147/65
f 127/152/66 134/162/66 132/159/66 122/147/66
f 135/163/67 136/164/67 134/162/67 127/152/67 126/151/67 137/165/67
f 138/166/68 139/167/68 137/165/68 126/151/68 125/150/68
f 124/156/69 130/155/69 138/166/69 125/150/69
f 140/168/70 139/167/70 138/166/70 130/155/70 129/154/70 141/169/70 142/170/70
f 135/163/71 137/165/71 139/167/71 140/168/71 143/171/71
f 136/164/72 135/163/72 143/171/72
f 143/171/73 140/168/73 142/170/73 133/172/73 132/159/73 134/162/73 136/164/73
f 141/169/74 129/154/74 128/153/74
f 142/170/75 141/169/75 128/153/75 131/158/75 133/160/75
f 144/173/76 145/174/76 146/175/76 147/176/76 148/177/76 149/178/76
f 145/174/77 150/179/77 151/180/77 152/181/77 146/175/77
f 153/182/78 154/183/78 155/184/78 150/185/78 145/186/78 144/187/78
f 149/178/79 156/188/79 157/189/79 153/182/79 144/187/79
f 148/190/80 158/191/80 156/188/80 149/178/80
f 159/192/81 160/193/81 158/191/81 148/190/81 147/194/81 161/195/81
f 146/175/82 152/181/82 161/195/82 147/194/82
f 155/196/83 162/197/83 151/180/83 150/179/83
f 159/192/84 161/195/84 152/181/84 151/180/84 162/197/84 163/198/84 164/199/84 165/200/84
f 160/193/85 159/192/85 165/200/85
f 165/200/86 164/199/86 166/201/86 157/202/86 156/188/86 158/191/86 160/193/86
f 166/201/87 167/203/87 154/204/87 153/182/87 157/189/87
f 166/205/88 164/206/88 163/207/88 167/208/88
f 167/203/89 163/207/89 162/197/89 155/196/89 154/183/89
f 77/92/90 78/93/90 76/84/90 176/83/90 177/209/90
f 70/88/91 79/87/91 77/92/91 177/209/91 175/210/91
f 67/211/92 68/73/92 69/76/92 70/212/92 175/213/92 174/214/92
f 66/72/93 65/69/93 64/68/93 62/215/93 61/59/93 171/66/93 170/70/93
f 57/57/94 60/56/94 169/216/94 173/217/94
f 65/69/95 66/72/95 172/71/95 169/216/95 60/56/95 59/55/95
f 55/218/96 56/58/96 57/57/96 173/219/96 168/220/96
