# Blender v2.79 (sub 0) OBJ File: ''
# www.blender.org
mtllib crystal group 16.mtl
o Crystal
v -19.237717 8.402998 10.456501
v -18.430115 7.078098 10.458801
v -18.305817 6.041198 10.978701
v -18.791214 7.917899 10.037801
v -18.725723 8.110498 10.188201
v -18.244614 7.112698 10.269701
v -18.357712 7.102498 10.410401
v -7.076904 2.568894 34.736401
v -7.289825 2.661294 34.768299
v -6.984131 2.518194 34.762600
v -7.116302 2.547294 34.890202
v -5.721527 5.956994 35.666901
v -13.880219 -1.385707 45.548599
v -13.307312 -1.596107 45.365002
v -12.950623 -1.940008 45.765900
v -13.166809 -2.073508 46.350399
v -13.739716 -1.863008 46.534000
v -14.096405 -1.519107 46.133099
v -12.636902 -0.347307 45.928501
v -12.547607 -0.433307 46.028801
v -12.440002 -0.918407 46.188000
v -12.685120 -0.351207 45.879398
v -13.399719 -0.424407 45.945801
v -12.839813 -0.294407 45.928902
v -13.615906 -0.557808 46.530300
v -13.231720 -0.707508 46.939999
v -13.404602 -0.540708 46.745602
v -13.210327 -0.803808 46.971600
v -12.656219 -1.051808 46.772499
v -12.692902 -0.993908 46.805801
v -12.827026 -0.389208 46.607399
v -12.642426 -0.283408 46.114899
v -12.648315 -0.278808 46.124100
v -13.032623 -0.454308 46.734402
v -29.948212 -4.026708 48.211201
v -29.118317 -4.046808 48.303600
v -28.785217 -4.187008 49.056702
v -29.115814 -3.355208 48.431301
v -28.869415 -3.458908 48.988400
v -28.783310 -3.650708 49.155701
v -29.946320 -3.510508 48.306400
v -29.446518 -3.164008 48.428200
v -29.369720 -3.165908 48.436699
v -29.415512 -3.121808 48.508099
v -29.467819 -3.012908 49.001301
v -29.747314 -3.080408 49.372799
v 5.150482 1.354989 69.179001
v -1.571320 0.304392 46.215401
v -0.749329 0.109993 46.012699
v -0.189606 -0.115608 46.637501
v -0.451904 -0.146808 47.465000
v -1.273926 0.047492 47.667702
v -1.833618 0.273092 47.042900
v -0.562225 0.811792 46.098499
v -0.148224 0.644892 46.560799
v -0.044617 0.428592 46.704102
v -1.431702 0.828093 46.279499
v -0.841003 1.075192 46.202202
v -0.764923 1.057192 46.183399
v -1.694031 0.796892 47.106899
v -1.085510 0.754292 47.754101
v -1.476013 0.911792 47.318199
v -0.306915 0.397292 47.531502
v -0.725830 0.904792 47.707100
v -0.774231 1.110392 46.266899
v -0.625702 1.223292 46.760899
v -0.773315 1.205692 47.226299
v -22.980820 -1.918906 35.272701
v -6.452728 -1.477709 56.636501
v -5.860901 -1.782009 56.445202
v -5.399231 -1.972909 56.924500
v -5.529205 -1.859509 57.595001
v -6.121002 -1.555209 57.786301
v -6.582703 -1.364309 57.306999
v -5.093109 -0.315009 56.377300
v -4.977631 -0.362809 56.497200
v -4.818115 -0.787709 56.836700
v -5.152924 -0.337809 56.338200
v -5.906006 -0.362509 56.553902
v -5.312714 -0.255609 56.389900
v -6.036011 -0.249109 57.224400
v -5.550201 -0.242009 57.627899
v -5.774109 -0.149409 57.395500
v -5.518524 -0.326409 57.695301
v -4.948120 -0.674309 57.507301
v -4.984009 -0.601309 57.522499
v -5.182831 -0.071509 57.099300
v -5.070404 -0.173909 56.536701
v -5.075317 -0.165309 56.544899
v -5.379913 -0.078409 57.286499
v -0.296204 -0.473809 55.872898
v 0.290283 -0.728909 55.912300
v 0.395691 -1.232709 56.294102
v -0.085510 -1.481309 56.636700
v -0.672028 -1.226109 56.597401
v -0.777405 -0.722409 56.215500
v 0.413086 -0.381309 56.336899
v 0.445374 -0.535709 56.453999
v 0.447998 -1.084709 56.474899
v -0.179626 -0.143609 56.276299
v -0.135712 -0.141609 56.301300
v 0.411499 -0.379609 56.337898
v -0.683716 -0.457009 56.539799
v -0.552612 -0.336309 56.541801
v -0.578308 -0.960709 56.921700
v -0.308411 -1.025109 56.994801
v -0.468506 -0.955509 56.984100
v -0.033203 -1.333309 56.817501
v 0.295197 -0.367509 56.550701
v 0.027588 -0.286009 56.732101
v -0.099426 -0.351609 56.822601
v -0.309418 -0.809109 56.986500
v -0.107117 -0.315209 56.794899
v -0.014801 -0.267509 56.729301
v -30.380249 -4.131130 48.785564
v -29.169540 -3.744154 49.669266
v -29.905823 -3.190296 49.334198
v -30.397125 -3.619556 48.905800
v -29.756699 -3.128917 49.446560
v -29.152008 -4.275734 49.544327
vt 0.083300 0.000000
vt -0.083300 0.000000
vt 0.333300 0.000000
vt 0.583300 0.000000
vt 0.416700 0.000000
vt 0.250000 0.000000
vt 0.902100 0.858300
vt 0.860400 0.858300
vt 0.750000 0.685600
vt 0.750000 0.000000
vt 0.916700 0.000000
vt 0.916700 0.835500
vt 0.083300 0.645100
vt -0.038300 0.835500
vt -0.083300 0.835500
vt 0.250000 0.645100
vt 0.394800 0.745200
vt 0.313900 0.745200
vt 0.416700 0.710900
vt 0.583300 0.685600
vt 0.567200 0.710900
vt 0.247300 0.926200
vt 0.533100 0.923600
vt 0.517000 0.926200
vt 0.272100 0.871600
vt 0.630000 0.835500
vt 0.916700 0.480000
vt 0.793400 0.480000
vt 0.750000 0.372200
vt 0.750000 0.000000
vt 0.916700 0.000000
vt 0.083300 0.358200
vt -0.016800 0.607000
vt -0.032200 0.607000
vt -0.083300 0.480000
vt -0.083300 0.000000
vt 0.083300 0.000000
vt 0.228239 0.000000
vt 0.234533 0.358200
vt 0.661000 0.607000
vt 0.602300 0.645400
vt 0.461700 0.779400
vt 0.371541 0.700490
vt 0.410407 0.755964
vt 0.397400 0.779400
vt 0.666700 0.000000
vt 0.916700 0.000000
vt 0.750000 0.000000
vt 0.333300 0.000000
vt 0.083300 0.000000
vt 0.250000 0.000000
vt 0.916700 0.480000
vt 0.793400 0.480000
vt 0.750000 0.372200
vt 0.083300 0.358200
vt -0.016800 0.607000
vt -0.032200 0.607000
vt -0.083300 0.480000
vt -0.083300 0.000000
vt 0.083300 0.000000
vt 0.250000 0.358200
vt 0.416700 0.483400
vt 0.300400 0.483400
vt 0.416700 0.000000
vt 0.583300 0.372200
vt 0.477600 0.634900
vt 0.583300 0.000000
vt 0.661000 0.607000
vt 0.602300 0.645400
vt 0.461700 0.779400
vt 0.397400 0.779400
vt 0.583900 0.607000
vt 0.083300 0.000000
vt -0.083300 0.000000
vt 0.333300 0.000000
vt 0.583300 0.000000
vt 0.416700 0.000000
vt 0.250000 0.000000
vt 0.902100 0.858300
vt 0.860400 0.858300
vt 0.750000 0.685600
vt 0.750000 0.000000
vt 0.916700 0.000000
vt 0.916700 0.835500
vt 0.083300 0.645100
vt -0.038300 0.835500
vt -0.083300 0.835500
vt 0.250000 0.645100
vt 0.394800 0.745200
vt 0.313900 0.745200
vt 0.416700 0.710900
vt 0.583300 0.685600
vt 0.567200 0.710900
vt 0.247300 0.926200
vt 0.533100 0.923600
vt 0.517000 0.926200
vt 0.272100 0.871600
vt 0.630000 0.835500
vt 0.666700 0.000000
vt 0.916700 0.000000
vt 0.750000 0.000000
vt 0.333300 0.000000
vt 0.083300 0.000000
vt 0.250000 0.000000
vt 0.916700 0.673000
vt 0.865600 0.673000
vt 0.750000 0.286500
vt 0.083300 0.639200
vt 0.072700 0.674800
vt -0.082800 0.674800
vt -0.083300 0.673000
vt -0.083300 0.000000
vt 0.083300 0.000000
vt 0.250000 0.513900
vt 0.212500 0.639200
vt 0.416700 0.000000
vt 0.416700 0.513900
vt 0.488700 0.602800
vt 0.443300 0.602800
vt 0.583300 0.000000
vt 0.583300 0.286500
vt 0.911700 0.674800
vt 0.481300 0.845600
vt 0.136200 1.000000
vt 0.134700 1.000000
vt 0.352300 0.754900
vt 0.182900 1.000000
vt 0.343700 0.639200
vt 0.384700 1.000000
vt 0.096700 0.674800
vt 0.521300 1.000000
vt 0.511000 1.000000
vt 0.626300 1.000000
vt 0.603200 1.000000
vt 0.583900 0.607000
vt 0.620404 0.372200
vt 0.626949 0.000000
vt 0.666700 0.000000
vt 0.442410 0.000000
vt 0.304397 0.000000
vn -0.4193 -0.8390 -0.3467
vn 0.7148 -0.0697 -0.6959
vn -0.1272 0.4324 -0.8927
vn -0.8420 0.5022 -0.1968
vn -0.7148 0.0698 0.6958
vn 0.1272 -0.4324 0.8927
vn 0.8421 -0.5022 0.1968
vn 0.8624 0.3200 0.3921
vn 0.4030 0.3648 0.8394
vn -0.1382 0.6875 0.7129
vn -0.2200 0.9655 0.1390
vn 0.7805 0.5982 -0.1819
vn 0.2394 0.9206 -0.3084
vn 0.9171 0.0692 -0.3927
vn 0.1132 0.1799 -0.9771
vn -0.8038 0.1108 -0.5845
vn 0.5922 0.7978 -0.1134
vn -0.5867 0.7088 0.3915
vn 0.0755 0.8691 -0.4888
vn -0.2558 -0.9596 -0.1173
vn 0.7207 -0.1083 -0.6847
vn -0.1977 0.1708 -0.9653
vn -0.9184 0.2791 -0.2806
vn -0.7207 0.1084 0.6847
vn 0.1977 -0.1707 0.9653
vn 0.9183 -0.2793 0.2806
vn 0.6592 0.6654 -0.3502
vn 0.7863 0.5556 0.2703
vn -0.2673 0.8047 0.5301
vn -0.3943 0.9145 -0.0905
vn 0.0688 0.8448 -0.5306
vn -0.4393 -0.8959 0.0663
vn 0.6019 -0.3483 -0.7186
vn -0.2767 0.0646 -0.9588
vn -0.8785 0.4129 -0.2402
vn -0.6019 0.3483 0.7186
vn 0.2766 -0.0646 0.9588
vn 0.8785 -0.4130 0.2401
vn 0.9012 0.4210 0.1035
vn 0.5142 0.6449 0.5655
vn -0.0506 0.9102 0.4112
vn -0.2282 0.9517 -0.2052
vn 0.7234 0.4623 -0.5128
vn 0.1587 0.7279 -0.6670
vn -0.2183 -0.6181 -0.7552
vn 0.9620 -0.0059 -0.2730
vn 0.3386 0.6778 -0.6526
vn -0.6234 0.6837 -0.3795
vn -0.9619 0.0058 0.2732
vn -0.3386 -0.6778 0.6526
vn 0.6233 -0.6838 0.3794
vn 0.7854 0.4700 0.4027
vn 0.5679 0.0341 0.8224
vn -0.0501 0.0381 0.9980
vn -0.4510 0.4774 0.7541
vn -0.2334 0.9130 0.3347
vn 0.2183 0.6180 0.7552
vn 0.3848 0.9092 0.1588
vn -0.5139 0.8245 -0.2366
vn 0.8038 -0.1108 0.5844
vn 0.5194 0.6821 0.5147
vn -0.0036 -0.9834 -0.1815
usemtl wire_020020020
s off
f 13/1/1 14/2/1 15/3/1 16/4/1 17/5/1 18/6/1
f 19/7/2 20/8/2 21/9/2 15/10/2 14/11/2 22/12/2
f 23/13/3 24/14/3 22/15/3 14/2/3 13/1/3
f 18/6/4 25/16/4 23/13/4 13/1/4
f 26/17/5 27/18/5 25/16/5 18/6/5 17/5/5 28/19/5
f 29/20/6 30/21/6 28/19/6 17/5/6 16/4/6
f 15/10/7 21/9/7 29/20/7 16/4/7
f 31/22/8 30/21/8 29/20/8 21/9/8 20/8/8 32/23/8 33/24/8
f 26/17/9 28/19/9 30/21/9 31/22/9 34/25/9
f 27/18/10 26/17/10 34/25/10
f 34/25/11 31/22/11 33/24/11 24/26/11 23/13/11 25/16/11 27/18/11
f 32/23/12 20/8/12 19/7/12
f 33/24/13 32/23/13 19/7/13 22/12/13 24/14/13
f 38/27/14 39/28/14 40/29/14 37/30/14 36/31/14
f 41/32/15 42/33/15 43/34/15 38/35/15 36/36/15 35/37/15
f 115/38/16 118/39/16 41/32/16 35/37/16
f 43/40/17 44/41/17 45/42/17 39/28/17 38/27/17
f 117/43/18 119/44/18 46/45/18
f 42/33/19 44/41/19 43/40/19
f 48/46/20 49/47/20 50/48/20 51/49/20 52/50/20 53/51/20
f 54/52/21 55/53/21 56/54/21 50/48/21 49/47/21
f 57/55/22 58/56/22 59/57/22 54/58/22 49/59/22 48/60/22
f 53/51/23 60/61/23 57/55/23 48/60/23
f 61/62/24 62/63/24 60/61/24 53/51/24 52/64/24
f 63/65/25 64/66/25 61/62/25 52/64/25 51/67/25
f 50/48/26 56/54/26 63/65/26 51/67/26
f 59/68/27 65/69/27 66/70/27 55/53/27 54/52/27
f 66/70/28 67/71/28 64/66/28 63/65/28 56/54/28 55/53/28
f 61/62/29 64/66/29 67/71/29 62/63/29
f 67/71/30 66/70/30 65/69/30 58/72/30 57/55/30 60/61/30 62/63/30
f 58/56/31 65/69/31 59/68/31
f 69/73/32 70/74/32 71/75/32 72/76/32 73/77/32 74/78/32
f 75/79/33 76/80/33 77/81/33 71/82/33 70/83/33 78/84/33
f 79/85/34 80/86/34 78/87/34 70/74/34 69/73/34
f 74/78/35 81/88/35 79/85/35 69/73/35
f 82/89/36 83/90/36 81/88/36 74/78/36 73/77/36 84/91/36
f 85/92/37 86/93/37 84/91/37 73/77/37 72/76/37
f 71/82/38 77/81/38 85/92/38 72/76/38
f 87/94/39 86/93/39 85/92/39 77/81/39 76/80/39 88/95/39 89/96/39
f 82/89/40 84/91/40 86/93/40 87/94/40 90/97/40
f 83/90/41 82/89/41 90/97/41
f 90/97/42 87/94/42 89/96/42 80/98/42 79/85/42 81/88/42 83/90/42
f 88/95/43 76/80/43 75/79/43
f 89/96/44 88/95/44 75/79/44 78/84/44 80/86/44
f 91/99/45 92/100/45 93/101/45 94/102/45 95/103/45 96/104/45
f 92/100/46 97/105/46 98/106/46 99/107/46 93/101/46
f 100/108/47 101/109/47 102/110/47 97/111/47 92/112/47 91/113/47
f 96/104/48 103/114/48 104/115/48 100/108/48 91/113/48
f 95/116/49 105/117/49 103/114/49 96/104/49
f 106/118/50 107/119/50 105/117/50 95/116/50 94/120/50 108/121/50
f 93/101/51 99/107/51 108/121/51 94/120/51
f 102/122/52 109/123/52 98/106/52 97/105/52
f 106/118/53 108/121/53 99/107/53 98/106/53 109/123/53 110/124/53 111/125/53 112/126/53
f 107/119/54 106/118/54 112/126/54
f 112/126/55 111/125/55 113/127/55 104/128/55 103/114/55 105/117/55 107/119/55
f 113/127/56 114/129/56 101/130/56 100/108/56 104/115/56
f 113/131/57 111/132/57 110/133/57 114/134/57
f 114/129/58 110/133/58 109/123/58 102/122/58 101/109/58
f 46/45/59 45/42/59 44/41/59 42/135/59 41/32/59 118/39/59 117/43/59
f 37/30/60 40/29/60 116/136/60 120/137/60
f 45/42/61 46/45/61 119/44/61 116/136/61 40/29/61 39/28/61
f 35/138/62 36/31/62 37/30/62 120/139/62 115/140/62
